<svg xmlns="http://www.w3.org/2000/svg" width="1120" height="434" viewBox="0 0 1120 434" role="img" aria-label="Funding opportunity timeline">
<rect width="100%" height="100%" fill="#ffffff"/>
<text x="24" y="28" font-family="Arial, sans-serif" font-size="18" font-weight="700" fill="#1b2a32">Funding opportunity timeline from June 11, 2026</text>
<line x1="300" y1="32" x2="1000" y2="32" stroke="#cbd5dc" stroke-width="1"/>
<text x="24" y="60" font-family="Arial, sans-serif" font-size="12" fill="#33444e">Critical Minerals &amp; Materials Accelerator </text>
<rect x="300" y="44" width="48" height="18" rx="4" fill="#be123c"/>
<text x="356" y="58" font-family="Arial, sans-serif" font-size="12" fill="#33444e">2026-06-25 (14 days)</text>
<text x="24" y="94" font-family="Arial, sans-serif" font-size="12" fill="#33444e">Faculty Early Career Development Program (</text>
<rect x="300" y="78" width="141" height="18" rx="4" fill="#b7791f"/>
<text x="449" y="92" font-family="Arial, sans-serif" font-size="12" fill="#33444e">2026-07-22 (41 days)</text>
<text x="24" y="128" font-family="Arial, sans-serif" font-size="12" fill="#33444e">Critical Minerals &amp; Materials Accelerator </text>
<rect x="300" y="112" width="144" height="18" rx="4" fill="#b7791f"/>
<text x="452" y="126" font-family="Arial, sans-serif" font-size="12" fill="#33444e">2026-07-23 (42 days)</text>
<text x="24" y="162" font-family="Arial, sans-serif" font-size="12" fill="#33444e">ECosystem for Leading Innovation in Plasma</text>
<rect x="300" y="146" width="210" height="18" rx="4" fill="#2563eb"/>
<text x="518" y="160" font-family="Arial, sans-serif" font-size="12" fill="#33444e">2026-08-11 (61 days)</text>
<text x="24" y="196" font-family="Arial, sans-serif" font-size="12" fill="#33444e">ROSES-2025 Rapid Response and Novel Resear</text>
<rect x="300" y="180" width="279" height="18" rx="4" fill="#2563eb"/>
<text x="587" y="194" font-family="Arial, sans-serif" font-size="12" fill="#33444e">2026-08-31 (81 days)</text>
<text x="24" y="230" font-family="Arial, sans-serif" font-size="12" fill="#33444e">Astrophysics Explorers Program 2026 SMEX A</text>
<rect x="300" y="214" width="310" height="18" rx="4" fill="#2563eb"/>
<text x="618" y="228" font-family="Arial, sans-serif" font-size="12" fill="#33444e">2026-09-09 (90 days)</text>
<text x="24" y="264" font-family="Arial, sans-serif" font-size="12" fill="#33444e">Computational and Data-Enabled Science and</text>
<rect x="300" y="248" width="331" height="18" rx="4" fill="#2563eb"/>
<text x="639" y="262" font-family="Arial, sans-serif" font-size="12" fill="#33444e">2026-09-15 (96 days)</text>
<text x="24" y="298" font-family="Arial, sans-serif" font-size="12" fill="#33444e">FY26 SBIR/STTR Phase II Applications from </text>
<rect x="300" y="282" width="651" height="18" rx="4" fill="#0f766e"/>
<text x="959" y="296" font-family="Arial, sans-serif" font-size="12" fill="#33444e">2026-12-17 (189 days)</text>
<text x="24" y="332" font-family="Arial, sans-serif" font-size="12" fill="#33444e">Fluid Dynamics</text>
<rect x="300" y="316" width="700" height="18" rx="4" fill="#0f766e"/>
<text x="1008" y="330" font-family="Arial, sans-serif" font-size="12" fill="#33444e">2026-12-31 (203 days)</text>
<text x="24" y="366" font-family="Arial, sans-serif" font-size="12" fill="#33444e">SCALEUP Ready</text>
<rect x="300" y="350" width="700" height="18" rx="4" fill="#0f766e"/>
<text x="1008" y="364" font-family="Arial, sans-serif" font-size="12" fill="#33444e">2026-12-31 (203 days)</text>
</svg>